#!OML:ASF F:\VICON\USERDATA\INSTALL\rory3\rory3.ASF
:FULLY-SPECIFIED
:DEGREES
469
root -3.54527 17.6312 -0.794658 -2.94465 -13.8597 0.815679
lowerback 1.92823 -2.83935 -5.38496
upperback -3.74688 -3.93227 2.66439
thorax -4.42848 -1.71963 6.01082
lowerneck -21.6181 -5.44768 -11.783
upperneck 8.50173 -6.548 17.1011
head 7.16869 -2.12346 6.82842
rclavicle 2.15681e-014 -1.19271e-014
rhumerus 43.321 -54.9057 -10.9976
rradius 75.4108
rwrist -2.19987
rhand -43.8421 -2.02467
rfingers 7.12502
rthumb -16.6692 -31.3289
lclavicle 2.15681e-014 -1.19271e-014
lhumerus 34.2809 51.7488 4.64553
lradius 68.7426
lwrist 12.723
lhand -31.887 29.947
lfingers 7.12502
lthumb -5.13963 59.8647
rfemur -12.8296 -2.25531 19.8147
rtibia 36.9406
rfoot -16.3141 2.24411
rtoes 10.7213
lfemur 8.65229 -1.96165 -17.3331
ltibia 35.3862
lfoot -7.75055 6.4228
ltoes -28.5754
470
root -3.59444 17.6525 -0.735082 -3.07087 -14.4125 0.736004
lowerback 1.92127 -2.87254 -5.34915
upperback -3.88762 -3.97324 2.77369
thorax -4.5618 -1.73106 6.1135
lowerneck -21.254 -5.36573 -12.2393
upperneck 8.6687 -6.45592 17.6674
head 7.19167 -2.06418 7.12556
rclavicle -4.35338e-014 -2.22639e-014
rhumerus 45.0392 -55.1528 -12.0121
rradius 76.1097
rwrist -2.47771
rhand -44.326 -2.7863
rfingers 7.12502
rthumb -17.135 -32.0507
lclavicle -4.35338e-014 -2.22639e-014
lhumerus 35.0727 51.81 4.67335
lradius 70.0648
lwrist 12.5361
lhand -33.032 29.466
lfingers 7.12502
lthumb -6.24515 59.3539
rfemur -12.1107 -1.99409 20.0221
rtibia 36.2294
rfoot -16.1139 2.52227
rtoes 11.3675
lfemur 8.11375 -1.53372 -16.9785
ltibia 36.7999
lfoot -6.35185 5.67126
ltoes -25.5592
471
root -3.64244 17.6741 -0.674338 -3.1962 -14.9652 0.687142
lowerback 1.85134 -2.93285 -5.31809
upperback -3.9912 -4.04813 2.85413
thorax -4.61686 -1.76376 6.18389
lowerneck -21.2823 -5.34883 -11.7873
upperneck 9.23355 -6.53488 17.0752
head 7.34413 -2.12012 6.83813
rclavicle -5.60573e-014 1.66979e-014
rhumerus 47.1476 -55.5966 -13.5917
rradius 76.8751
rwrist -2.85207
rhand -44.3182 -2.41884
rfingers 7.12502
rthumb -17.1275 -31.6839
lclavicle -5.60573e-014 1.66979e-014
lhumerus 35.8041 51.9657 4.7349
lradius 71.4627
lwrist 11.9399
lhand -33.6739 29.0396
lfingers 7.12502
lthumb -6.8648 58.9083
rfemur -11.4039 -1.75077 20.1953
rtibia 35.5166
rfoot -15.9025 2.73037
rtoes 11.5525
lfemur 7.56611 -1.07245 -16.6518
ltibia 38.2013
lfoot -5.0113 5.06277
ltoes -24.5635
472
root -3.68731 17.6951 -0.615381 -3.22503 -15.5714 0.626255
lowerback 1.71219 -3.02463 -5.2385
upperback -4.13937 -4.15938 2.96653
thorax -4.67492 -1.81487 6.25927
lowerneck -21.1489 -5.30392 -11.4464
upperneck 9.70357 -6.56565 16.6129
head 7.44267 -2.15627 6.62115
rclavicle -4.73108e-014 -3.02153e-014
rhumerus 49.8041 -56.0845 -15.7953
rradius 77.6537
rwrist -3.00391
rhand -43.6301 -1.55497
rfingers 7.12502
rthumb -16.4651 -30.8763
lclavicle -4.73108e-014 -3.02153e-014
lhumerus 36.4518 52.1898 4.90273
lradius 72.9435
lwrist 11.1272
lhand -34.227 28.8146
lfingers 7.12502
lthumb -7.39867 58.6652
rfemur -10.8367 -1.49624 20.3843
rtibia 34.8393
rfoot -15.5985 2.91344
rtoes 11.4984
lfemur 6.91146 -0.64159 -16.3622
ltibia 39.5833
lfoot -3.75787 4.67341
ltoes -25.027
473
root -3.72797 17.7118 -0.558555 -3.23078 -16.2332 0.461562
lowerback 1.67405 -3.0355 -4.99426
upperback -4.26347 -4.16044 3.04863
thorax -4.79327 -1.8161 6.21139
lowerneck -20.8819 -5.30294 -11.2372
upperneck 9.7819 -6.65248 16.5619
head 7.42702 -2.20392 6.55591
rclavicle -3.97569e-016 -1.11319e-014
rhumerus 52.3143 -56.7393 -17.9677
rradius 78.4513
rwrist -2.97168
rhand -42.4432 -0.523143
rfingers 7.12502
rthumb -15.3221 -29.9355
lclavicle -3.97569e-016 -1.11319e-014
lhumerus 37.5027 52.4642 5.44601
lradius 74.4435
lwrist 10.5254
lhand -35.0066 28.4218
lfingers 7.12502
lthumb -8.1511 58.2446
rfemur -10.2932 -1.16389 20.6816
rtibia 34.1973
rfoot -15.3218 3.06316
rtoes 11.4808
lfemur 6.25297 -0.213133 -15.9834
ltibia 40.9528
lfoot -2.48871 4.03255
ltoes -24.1987
474
root -3.76706 17.7252 -0.503958 -3.34207 -16.9266 0.317213
lowerback 1.71962 -2.94324 -4.77024
upperback -4.25366 -4.02866 3.05706
thorax -4.84033 -1.75749 6.09124
lowerneck -21.2423 -5.27886 -11.8733
upperneck 10.6014 -6.67869 17.5051
head 7.82826 -2.1312 7.02335
rclavicle -3.10104e-014 -2.38542e-014
rhumerus 53.9667 -57.4466 -19.3231
rradius 79.2697
rwrist -3.10786
rhand -42.29 0.0459247
rfingers 7.12502
rthumb -15.1745 -29.3777
lclavicle -3.10104e-014 -2.38542e-014
lhumerus 39.0203 52.8212 6.42961
lradius 76.019
lwrist 9.93921
lhand -35.7733 27.8321
lfingers 7.12502
lthumb -8.89102 57.6248
rfemur -9.65331 -0.828155 20.9472
rtibia 33.5977
rfoot -15.1366 3.25995
rtoes 11.7109
lfemur 5.7349 0.278227 -15.6034
ltibia 42.3009
lfoot -1.32807 3.06397
ltoes -22.7263
475
root -3.8056 17.7377 -0.451537 -3.48871 -17.5998 0.253851
lowerback 1.77342 -2.89615 -4.64587
upperback -4.25801 -3.96153 3.08146
thorax -4.89059 -1.72657 6.04788
lowerneck -21.2822 -5.22796 -12.0143
upperneck 11.1162 -6.69404 17.824
head 8.02714 -2.10548 7.17791
rclavicle -4.31363e-014 -2.8625e-014
rhumerus 55.2974 -57.9639 -20.3203
rradius 80.2333
rwrist -3.5958
rhand -42.8822 -0.286894
rfingers 7.12502
rthumb -15.7449 -29.6665
lclavicle -4.31363e-014 -2.8625e-014
lhumerus 40.1951 53.1325 7.08801
lradius 77.5926
lwrist 9.42197
lhand -36.132 27.5718
lfingers 7.12502
lthumb -9.23714 57.3495
rfemur -9.02939 -0.560362 21.126
rtibia 33.0616
rfoot -14.9829 3.48585
rtoes 11.7048
lfemur 5.2453 0.681761 -15.3323
ltibia 43.6006
lfoot -0.260909 2.13124
ltoes -22.3023
476
root -3.84338 17.7496 -0.399166 -3.59451 -18.2719 0.162619
lowerback 1.82545 -2.87139 -4.51322
upperback -4.30899 -3.9225 3.14849
thorax -4.98284 -1.70676 6.04806
lowerneck -21.2112 -5.16977 -12.0338
upperneck 11.6246 -6.71533 17.9724
head 8.19338 -2.09691 7.24901
rclavicle 1.82882e-014 -3.18055e-014
rhumerus 56.8986 -58.429 -21.6781
rradius 81.3204
rwrist -3.86781
rhand -43.0693 -0.584112
rfingers 7.12502
rthumb -15.9251 -29.9494
lclavicle 1.82882e-014 -3.18055e-014
lhumerus 41.1206 53.3875 7.59395
lradius 79.2785
lwrist 9.28046
lhand -36.3004 27.8566
lfingers 7.12502
lthumb -9.39968 57.627
rfemur -8.48854 -0.2824 21.3352
rtibia 32.5999
rfoot -14.8061 3.70173
rtoes 11.7267
lfemur 4.71882 1.09026 -15.0293
ltibia 44.8423
lfoot 0.864198 1.18591
ltoes -22.379
477
root -3.88085 17.7595 -0.348363 -3.70693 -18.9904 0.185533
lowerback 1.81586 -2.82117 -4.49074
upperback -4.33117 -3.85374 3.16674
thorax -5.01028 -1.67173 6.05221
lowerneck -21.1337 -5.13521 -11.7953
upperneck 12.0086 -6.7731 17.8246
head 8.29989 -2.12175 7.15648
rclavicle -5.4467e-014 -1.03368e-014
rhumerus 58.579 -58.958 -23.2131
rradius 82.3795
rwrist -3.90675
rhand -43.129 -0.430241
rfingers 7.12502
rthumb -15.9826 -29.7909
lclavicle -5.4467e-014 -1.03368e-014
lhumerus 42.2007 53.6206 8.3027
lradius 81.0367
lwrist 9.42985
lhand -37.1489 28.8457
lfingers 7.12502
lthumb -10.2183 58.5776
rfemur -8.02215 -0.0407302 21.4047
rtibia 32.2043
rfoot -14.5909 4.03535
rtoes 12.2057
lfemur 4.19005 1.49455 -14.8489
ltibia 46.022
lfoot 1.99867 0.518945
ltoes -21.5004
